<svg width="153" height="154" viewBox="0 0 153 154" fill="none" xmlns="http://www.w3.org/2000/svg">
<g clip-path="url(#clip0_384_3294)">
<path d="M0 69.9311C1.071 65.1431 1.872 60.2741 3.267 55.5761C13.419 21.2051 45.747 -1.06992 82.017 1.15308C116.361 3.25908 145.881 30.0611 151.749 64.4771C159.039 107.2 129.339 147.412 86.319 153.082C44.262 158.626 5.922 128.908 0.594 86.6441C0.513 86.0051 0.198 85.3931 0 84.7721C0 79.8221 0 74.8721 0 69.9221V69.9311ZM142.173 77.5541C142.389 42.0671 114.075 11.6651 76.68 11.4581C40.23 11.2601 10.395 40.9961 10.359 77.2841C10.323 113.302 40.014 143.191 75.87 143.236C112.572 143.281 142.146 113.977 142.173 77.5541Z" fill="#A0A4AD" fill-opacity="0.5"/>
<circle cx="100.45" cy="55.1513" r="9.6" fill="#A0A4AD" fill-opacity="0.5"/>
<circle cx="100.45" cy="55.1513" r="9.2" stroke="#A0A4AD" stroke-opacity="0.5" stroke-width="0.8"/>
<circle cx="52.4496" cy="55.1513" r="9.6" fill="#A0A4AD" fill-opacity="0.5"/>
<circle cx="52.4496" cy="55.1513" r="9.2" stroke="#A0A4AD" stroke-opacity="0.5" stroke-width="0.8"/>
<path d="M39.9199 101.5H114.08" stroke="#A0A4AD" stroke-opacity="0.5" stroke-width="10" stroke-linecap="round"/>
</g>
<defs>
<clipPath id="clip0_384_3294">
<rect width="152.856" height="152.748" fill="white" transform="translate(0 0.876465)"/>
</clipPath>
</defs>
</svg>

