<svg width="153" height="153" viewBox="0 0 153 153" fill="none" xmlns="http://www.w3.org/2000/svg">
<g clip-path="url(#clip0_384_3319)">
<path d="M0 69.0546C1.071 64.2666 1.872 59.3976 3.267 54.6996C13.419 20.3286 45.747 -1.94639 82.017 0.276614C116.361 2.38261 145.881 29.1846 151.749 63.6006C159.039 106.324 129.339 146.536 86.319 152.206C44.262 157.75 5.922 128.032 0.594 85.7676C0.513 85.1286 0.198 84.5166 0 83.8956C0 78.9456 0 73.9956 0 69.0456V69.0546ZM142.173 76.6776C142.389 41.1906 114.075 10.7886 76.68 10.5816C40.23 10.3836 10.395 40.1196 10.359 76.4076C10.323 112.426 40.014 142.315 75.87 142.36C112.572 142.405 142.146 113.101 142.173 76.6776Z" fill="#A0A4AD" fill-opacity="0.5"/>
<circle cx="100.451" cy="50.2748" r="9.6" fill="#A0A4AD" fill-opacity="0.5"/>
<circle cx="52.4506" cy="50.2748" r="9.6" fill="#A0A4AD" fill-opacity="0.5"/>
<path d="M35.4006 106.649C45.9109 83.9972 66.8957 80.0033 75.4006 79.8489C96.4203 79.4674 111.001 93.0489 118.601 106.649" stroke="#A0A4AD" stroke-opacity="0.5" stroke-width="10" stroke-linecap="round"/>
</g>
<defs>
<clipPath id="clip0_384_3319">
<rect width="152.856" height="152.748" fill="white"/>
</clipPath>
</defs>
</svg>
