<svg width="233" height="12" viewBox="0 0 233 12" fill="none" xmlns="http://www.w3.org/2000/svg">
<path fill-rule="evenodd" clip-rule="evenodd" d="M4.82583 10.7901C4.86451 10.7219 4.87625 10.641 4.85864 10.5641C4.84103 10.4873 4.7954 10.4202 4.73112 10.3768C3.34118 9.44253 2.42249 7.83181 2.42249 5.99982C2.42249 4.16807 3.34118 2.55736 4.73112 1.62312C4.79538 1.57965 4.84099 1.51261 4.8586 1.43575C4.87621 1.35888 4.86448 1.27802 4.82583 1.20974L4.23249 0.155631C4.21177 0.119024 4.18402 0.0871151 4.15091 0.0618399C4.11781 0.0365646 4.08005 0.0184493 4.03992 0.00859254C3.99979 -0.00126423 3.95812 -0.0026571 3.91745 0.0044984C3.87678 0.0116539 3.83794 0.0272086 3.80331 0.0502194C1.89564 1.30713 0.630859 3.50144 0.630859 5.99994C0.630859 8.49844 1.89552 10.6926 3.80331 11.9497C3.83794 11.9727 3.87677 11.9882 3.91743 11.9954C3.9581 12.0025 3.99975 12.0011 4.03988 11.9913C4.08 11.9814 4.11776 11.9633 4.15087 11.9381C4.18398 11.9128 4.21175 11.881 4.23249 11.8444L4.82583 10.7901Z" fill="#005DEA"/>
<path fill-rule="evenodd" clip-rule="evenodd" d="M10.8117 0.15554L10.2185 1.2099C10.1799 1.27813 10.1681 1.35893 10.1857 1.43575C10.2033 1.51256 10.2489 1.57957 10.3131 1.62303C11.703 2.55726 12.6216 4.1681 12.6216 5.99997C12.6216 7.83184 11.703 9.44256 10.3131 10.3769C10.2489 10.4204 10.2033 10.4874 10.1857 10.5642C10.1681 10.641 10.1799 10.7218 10.2185 10.79L10.8117 11.8443C10.8324 11.8809 10.8602 11.9128 10.8933 11.938C10.9264 11.9633 10.9642 11.9814 11.0043 11.9913C11.0444 12.0011 11.0861 12.0025 11.1267 11.9954C11.1674 11.9882 11.2062 11.9727 11.2409 11.9497C13.1488 10.6927 14.4132 8.49848 14.4132 5.99997C14.4132 3.50147 13.1485 1.30728 11.2409 0.050129C11.2062 0.0271431 11.1674 0.0116116 11.1267 0.0044758C11.0861 -0.00265998 11.0444 -0.00125141 11.0043 0.00861612C10.9642 0.0184837 10.9264 0.0366047 10.8934 0.0618808C10.8603 0.087157 10.8325 0.119062 10.8118 0.155662" fill="#005DEA"/>
<path fill-rule="evenodd" clip-rule="evenodd" d="M27.6197 6.00016C27.6197 4.44279 26.4479 3.24123 24.9301 3.24123C23.4169 3.24123 22.2405 4.44279 22.2405 6.00016C22.2405 7.55753 23.4169 8.75869 24.9301 8.75869C26.4483 8.75869 27.6197 7.55753 27.6197 6.00016ZM20.6699 6.00016C20.6699 3.58032 22.5079 1.75391 24.9301 1.75391C27.3512 1.75391 29.1903 3.58072 29.1903 6.00016C29.1903 8.41999 27.3512 10.246 24.9301 10.246C22.5079 10.246 20.6699 8.41999 20.6699 6.00016ZM36.412 4.50209C36.412 3.74271 35.939 3.21416 35.0354 3.21416H33.6487C33.579 3.21416 33.5122 3.24255 33.463 3.29308C33.4137 3.34361 33.386 3.41215 33.386 3.48361V5.50505C33.386 5.6535 33.504 5.7737 33.6487 5.7737H35.0354C35.9394 5.7737 36.412 5.29451 36.412 4.50209ZM37.9302 4.51801C37.9302 6.00573 36.8896 7.13167 35.2721 7.13167H33.6487C33.579 7.13167 33.5122 7.16006 33.463 7.21059C33.4137 7.26112 33.386 7.32965 33.386 7.40111V9.8695C33.3861 9.90482 33.3794 9.9398 33.3662 9.97244C33.3531 10.0051 33.3338 10.0347 33.3095 10.0597C33.2851 10.0847 33.2563 10.1045 33.2245 10.1181C33.1927 10.1316 33.1586 10.1386 33.1241 10.1386H32.0832C32.0487 10.1386 32.0145 10.1317 31.9827 10.1182C31.9508 10.1047 31.9218 10.0849 31.8974 10.0599C31.873 10.0349 31.8537 10.0052 31.8405 9.97256C31.8273 9.93989 31.8205 9.90487 31.8205 9.8695V2.13081C31.8205 1.98236 31.938 1.86176 32.0832 1.86176H35.2721C36.89 1.86176 37.9302 3.05218 37.9302 4.51801ZM42.0317 3.55923V5.03023C42.0317 5.17869 42.1485 5.29968 42.294 5.29968H44.6317C44.7768 5.29968 44.8943 5.41988 44.8943 5.56913V6.44234C44.8943 6.5138 44.8667 6.58233 44.8174 6.63286C44.7681 6.68339 44.7013 6.71178 44.6317 6.71178H42.294C42.2596 6.71173 42.2254 6.71864 42.1936 6.73211C42.1618 6.74558 42.1328 6.76535 42.1084 6.7903C42.084 6.81525 42.0647 6.84488 42.0514 6.8775C42.0382 6.91012 42.0314 6.9451 42.0313 6.98043V8.44109C42.0313 8.58994 42.1485 8.71053 42.294 8.71053H45.0208C45.1655 8.71053 45.2831 8.83113 45.2831 8.97918V9.86911C45.2831 9.9405 45.2555 10.009 45.2063 10.0595C45.1571 10.11 45.0904 10.1384 45.0208 10.1386H40.7281C40.6936 10.1386 40.6594 10.1316 40.6276 10.118C40.5957 10.1045 40.5668 10.0846 40.5425 10.0596C40.5181 10.0346 40.4988 10.0049 40.4856 9.97219C40.4725 9.9395 40.4657 9.90447 40.4658 9.86911V2.13081C40.4658 1.98236 40.5833 1.86216 40.7281 1.86216H45.0204C45.1652 1.86216 45.2827 1.98236 45.2827 2.13081V3.02034C45.2827 3.09173 45.2551 3.16021 45.2059 3.21073C45.1567 3.26124 45.09 3.28968 45.0204 3.28978H42.2936C42.2239 3.28978 42.1571 3.31817 42.1079 3.3687C42.0586 3.41923 42.0317 3.48777 42.0317 3.55923ZM55.7302 2.13081V9.86911C55.7302 9.94057 55.7026 10.0091 55.6533 10.0596C55.604 10.1102 55.5372 10.1386 55.4676 10.1386H54.375C54.3354 10.1386 54.2964 10.1295 54.2608 10.1118C54.2251 10.0942 54.1939 10.0685 54.1693 10.0367L50.1148 4.81333C49.9596 4.61433 49.6473 4.72616 49.6473 4.98128V9.86911C49.6473 9.94057 49.6196 10.0091 49.5703 10.0596C49.5211 10.1102 49.4543 10.1386 49.3846 10.1386H48.3653C48.2957 10.1384 48.229 10.11 48.1798 10.0595C48.1307 10.009 48.103 9.9405 48.103 9.86911V2.13081C48.103 1.98236 48.2202 1.86176 48.3653 1.86176H49.4474C49.5274 1.86176 49.6026 1.89918 49.6523 1.96286L53.708 7.16749C53.8628 7.36649 54.1755 7.25425 54.1755 7.00033V2.13041C54.1755 1.98196 54.2923 1.86137 54.4374 1.86137H55.4676C55.6123 1.86137 55.7302 1.98236 55.7302 2.13081Z" fill="black"/>
<path fill-rule="evenodd" clip-rule="evenodd" d="M71.7504 5.98941C71.7504 8.41959 69.9176 10.246 67.4906 10.246C65.0684 10.246 63.2305 8.4192 63.2305 6.00016C63.2305 3.58032 65.0684 1.7543 67.4906 1.7543C68.8835 1.7543 70.0848 2.36165 70.8483 3.33237C70.8728 3.3631 70.8904 3.39895 70.8999 3.4374C70.9094 3.47586 70.9106 3.51598 70.9033 3.55495C70.8961 3.59391 70.8806 3.63078 70.8579 3.66294C70.8353 3.69511 70.8061 3.72179 70.7723 3.74112L69.8722 4.25095C69.8204 4.28122 69.7601 4.29239 69.7013 4.28261C69.6425 4.27284 69.5887 4.2427 69.549 4.19722C69.0601 3.61216 68.3279 3.24123 67.4848 3.24123C65.9775 3.24123 64.8011 4.4213 64.8011 6.03757C64.8011 7.55235 65.8463 8.75909 67.5116 8.75909C68.6961 8.75909 69.5765 8.15094 69.9622 7.18659C70.0316 7.01147 69.9001 6.81924 69.7158 6.81924H68.2414C68.2069 6.81924 68.1728 6.81227 68.141 6.79872C68.1091 6.78518 68.0802 6.76532 68.0558 6.7403C68.0315 6.71527 68.0121 6.68556 67.999 6.65288C67.9858 6.62019 67.9791 6.58516 67.9791 6.54979V5.76295C67.9791 5.6141 68.0967 5.49351 68.2414 5.49351H71.4792C71.6185 5.49351 71.7314 5.60375 71.7415 5.74584C71.7473 5.82384 71.7504 5.90504 71.7504 5.98941ZM80.6797 6.00016C80.6797 4.44279 79.508 3.24163 77.9902 3.24163C76.4774 3.24163 75.3006 4.44279 75.3006 6.00016C75.3006 7.55753 76.4774 8.75869 77.9902 8.75869C79.508 8.75869 80.6797 7.55753 80.6797 6.00016ZM73.73 6.00016C73.73 3.58032 75.5683 1.75391 77.9902 1.75391C80.4112 1.75391 82.2503 3.58072 82.2503 6.00016C82.2503 8.41999 80.4112 10.2464 77.9902 10.2464C75.5683 10.2464 73.73 8.41959 73.73 6.00016ZM91.2126 2.22633L88.3543 9.96463C88.3354 10.0157 88.302 10.0596 88.2582 10.0907C88.2145 10.1218 88.1626 10.1384 88.1094 10.1386H86.8535C86.8002 10.1385 86.7483 10.1219 86.7045 10.0908C86.6607 10.0597 86.6271 10.0157 86.6083 9.96463L83.7546 2.22633C83.7396 2.18557 83.7344 2.14168 83.7396 2.09843C83.7448 2.05519 83.7601 2.01387 83.7842 1.97803C83.8084 1.94218 83.8407 1.91288 83.8783 1.89263C83.9159 1.87238 83.9577 1.86179 84.0002 1.86176H85.0904C85.201 1.86176 85.3 1.9334 85.3372 2.04046L87.2345 7.49425C87.3175 7.73305 87.6458 7.73305 87.7284 7.49464L89.6304 2.04046C89.6485 1.98815 89.6821 1.9429 89.7263 1.9109C89.7706 1.87891 89.8234 1.86174 89.8775 1.86176H90.9674C91.1509 1.86176 91.2782 2.05002 91.2126 2.22633ZM95.2706 3.55883V5.03063C95.2706 5.17909 95.3882 5.29968 95.5329 5.29968H97.871C98.0157 5.29968 98.1336 5.41988 98.1336 5.56873V6.44234C98.1335 6.51373 98.1058 6.58216 98.0566 6.6326C98.0073 6.68305 97.9406 6.71138 97.871 6.71138H95.5329C95.4633 6.71149 95.3966 6.73992 95.3474 6.79044C95.2983 6.84096 95.2706 6.90944 95.2706 6.98083V8.44148C95.2706 8.58994 95.3882 8.71013 95.5329 8.71013H98.2597C98.4049 8.71013 98.522 8.83113 98.522 8.97958V9.86911C98.5221 9.90447 98.5153 9.9395 98.5022 9.97219C98.489 10.0049 98.4697 10.0346 98.4453 10.0596C98.421 10.0846 98.3921 10.1045 98.3602 10.118C98.3284 10.1316 98.2942 10.1386 98.2597 10.1386H93.967C93.9325 10.1385 93.8984 10.1315 93.8666 10.1179C93.8348 10.1044 93.8059 10.0845 93.7816 10.0595C93.7573 10.0344 93.738 10.0048 93.7249 9.9721C93.7118 9.93943 93.705 9.90444 93.7051 9.86911V2.13121C93.7051 1.98236 93.8223 1.86176 93.967 1.86176H98.2597C98.4049 1.86176 98.522 1.98236 98.522 2.13121V3.02074C98.5221 3.05608 98.5153 3.09109 98.5022 3.12376C98.489 3.15643 98.4697 3.18611 98.4453 3.2111C98.421 3.23609 98.392 3.25591 98.3602 3.26941C98.3283 3.28291 98.2942 3.28984 98.2597 3.28978H95.5329C95.4634 3.28989 95.3967 3.31827 95.3476 3.3687C95.2984 3.41913 95.2707 3.48751 95.2706 3.55883ZM102.907 5.08436C102.907 5.23282 103.025 5.35381 103.17 5.35381H104.389C105.14 5.35381 105.545 4.95979 105.545 4.29752C105.545 3.6456 105.14 3.21974 104.388 3.21974H103.17C103.1 3.21974 103.033 3.24812 102.984 3.29866C102.935 3.34919 102.907 3.41772 102.907 3.48918V5.08436ZM104.065 6.64094H103.169C103.1 6.64094 103.033 6.66932 102.984 6.71986C102.934 6.77039 102.907 6.83892 102.907 6.91038V9.86911C102.907 9.90447 102.9 9.9395 102.887 9.97219C102.874 10.0049 102.854 10.0346 102.83 10.0596C102.806 10.0846 102.777 10.1045 102.745 10.118C102.713 10.1316 102.679 10.1386 102.644 10.1386H101.604C101.569 10.1386 101.535 10.1316 101.503 10.118C101.472 10.1045 101.443 10.0846 101.418 10.0596C101.394 10.0346 101.375 10.0049 101.361 9.97219C101.348 9.9395 101.342 9.90447 101.342 9.86911V2.13121C101.342 1.98236 101.459 1.86176 101.604 1.86176H104.493C106.153 1.86176 107.062 2.96104 107.062 4.31344C107.062 5.21889 106.609 5.94523 105.911 6.33448C105.88 6.35154 105.853 6.37483 105.831 6.40294C105.809 6.43105 105.793 6.4634 105.784 6.49805C105.774 6.5327 105.772 6.56893 105.777 6.60457C105.781 6.6402 105.793 6.6745 105.811 6.70541L107.558 9.73219C107.581 9.77308 107.594 9.81957 107.594 9.86699C107.595 9.9144 107.583 9.96106 107.56 10.0022C107.537 10.0434 107.504 10.0777 107.464 10.1015C107.424 10.1254 107.378 10.138 107.332 10.1382H106.246C106.199 10.1383 106.153 10.1254 106.112 10.1009C106.072 10.0764 106.038 10.0411 106.016 9.99885L104.295 6.78103C104.272 6.73868 104.239 6.70333 104.199 6.67868C104.158 6.65404 104.112 6.641 104.065 6.64094ZM117.777 2.13121V9.8695C117.777 9.94083 117.75 10.0092 117.7 10.0596C117.651 10.1101 117.585 10.1384 117.515 10.1386H116.423C116.383 10.1386 116.344 10.1296 116.308 10.112C116.273 10.0944 116.241 10.0688 116.217 10.0371L112.162 4.81332C112.007 4.61433 111.695 4.72656 111.695 4.98128V9.8695C111.695 9.9409 111.667 10.0093 111.618 10.0598C111.568 10.1102 111.502 10.1386 111.432 10.1386H110.412C110.343 10.1384 110.276 10.1101 110.227 10.0596C110.178 10.0092 110.151 9.94079 110.151 9.8695V2.13121C110.151 1.98236 110.268 1.86176 110.412 1.86176H111.495C111.575 1.86176 111.65 1.89918 111.7 1.96325L115.756 7.16749C115.91 7.36649 116.223 7.25425 116.223 6.99953V2.13161C116.223 1.98276 116.339 1.86216 116.485 1.86216H117.515C117.66 1.86216 117.777 1.98236 117.777 2.13121ZM129.779 2.13121V9.8695C129.779 9.94086 129.752 10.0093 129.702 10.0598C129.653 10.1102 129.586 10.1386 129.517 10.1386H128.476C128.407 10.1386 128.34 10.1102 128.291 10.0598C128.241 10.0093 128.214 9.9409 128.214 9.8695V5.38087C128.214 5.08595 127.818 5.00596 127.708 5.27898L125.838 9.97139C125.818 10.0207 125.785 10.0629 125.741 10.0927C125.698 10.1224 125.647 10.1384 125.595 10.1386H125.134C125.082 10.1385 125.031 10.1225 124.987 10.0926C124.944 10.0627 124.91 10.0202 124.89 9.9706L123.03 5.2766C122.922 5.00317 122.525 5.08237 122.525 5.37808V9.8695C122.525 9.9409 122.497 10.0093 122.448 10.0598C122.399 10.1102 122.332 10.1386 122.262 10.1386H121.222C121.152 10.1386 121.086 10.1102 121.036 10.0598C120.987 10.0093 120.959 9.9409 120.959 9.8695V2.13121C120.959 1.98236 121.077 1.86176 121.222 1.86176H122.907C123.013 1.86176 123.108 1.92743 123.149 2.02813L125.12 6.92511C125.14 6.97441 125.173 7.0166 125.216 7.04632C125.259 7.07604 125.31 7.09195 125.362 7.09203C125.414 7.09212 125.465 7.07638 125.508 7.0468C125.551 7.01722 125.585 6.97514 125.605 6.9259L127.595 2.02733C127.615 1.97833 127.649 1.93647 127.692 1.90702C127.735 1.87756 127.786 1.86182 127.837 1.86176H129.517C129.662 1.86176 129.779 1.98236 129.779 2.13121ZM134.532 3.55883V5.03063C134.532 5.17909 134.65 5.29968 134.795 5.29968H137.133C137.278 5.29968 137.395 5.41988 137.395 5.56873V6.44234C137.395 6.51369 137.368 6.58212 137.318 6.63258C137.269 6.68304 137.202 6.71138 137.133 6.71138H134.795C134.725 6.71138 134.658 6.73977 134.609 6.7903C134.56 6.84083 134.532 6.90937 134.532 6.98083V8.44148C134.532 8.58994 134.65 8.71013 134.795 8.71013H137.522C137.666 8.71013 137.784 8.83113 137.784 8.97958V9.86911C137.784 9.90444 137.777 9.93943 137.764 9.9721C137.751 10.0048 137.731 10.0344 137.707 10.0595C137.683 10.0845 137.654 10.1044 137.622 10.1179C137.59 10.1315 137.556 10.1385 137.522 10.1386H133.229C133.194 10.1386 133.16 10.1316 133.128 10.118C133.097 10.1045 133.068 10.0846 133.043 10.0596C133.019 10.0346 133 10.0049 132.986 9.97219C132.973 9.9395 132.967 9.90447 132.967 9.86911V2.13121C132.967 1.98236 133.085 1.86176 133.229 1.86176H137.522C137.666 1.86176 137.784 1.98236 137.784 2.13121V3.02074C137.784 3.05605 137.777 3.09103 137.764 3.12367C137.751 3.15631 137.731 3.18597 137.707 3.21096C137.683 3.23595 137.654 3.25577 137.622 3.2693C137.59 3.28282 137.556 3.28978 137.522 3.28978H134.795C134.725 3.28978 134.658 3.31812 134.609 3.36856C134.56 3.41901 134.532 3.48744 134.532 3.55883ZM148.231 2.13121V9.8695C148.231 9.90489 148.224 9.93992 148.211 9.97259C148.198 10.0053 148.178 10.0349 148.154 10.0599C148.129 10.0849 148.1 10.1047 148.069 10.1182C148.037 10.1317 148.002 10.1386 147.968 10.1386H146.876C146.836 10.1386 146.797 10.1295 146.762 10.1119C146.726 10.0943 146.695 10.0687 146.671 10.0371L142.616 4.81332C142.461 4.61433 142.148 4.72656 142.148 4.98128V9.8695C142.148 9.94083 142.12 10.0092 142.071 10.0596C142.022 10.1101 141.955 10.1384 141.886 10.1386H140.865C140.796 10.1384 140.729 10.1101 140.68 10.0596C140.631 10.0092 140.603 9.94079 140.603 9.8695V2.13121C140.603 1.98236 140.721 1.86176 140.866 1.86176H141.948C142.028 1.86176 142.103 1.89918 142.153 1.96325L146.208 7.16749C146.363 7.36649 146.676 7.25425 146.676 6.99953V2.13161C146.676 1.98276 146.793 1.86216 146.938 1.86216H147.968C148.113 1.86216 148.231 1.98236 148.231 2.13121Z" fill="black"/>
<path fill-rule="evenodd" clip-rule="evenodd" d="M156.109 3.28935H154.559C154.524 3.28935 154.49 3.29632 154.458 3.30987C154.426 3.32341 154.397 3.34327 154.373 3.36829C154.349 3.39332 154.329 3.42302 154.316 3.45571C154.303 3.4884 154.296 3.52343 154.296 3.55879V9.86906C154.296 9.94039 154.269 10.0088 154.219 10.0592C154.17 10.1096 154.104 10.138 154.034 10.1381H152.999C152.929 10.138 152.862 10.1096 152.813 10.0592C152.764 10.0088 152.736 9.94039 152.736 9.86906V3.55879C152.736 3.52343 152.73 3.4884 152.716 3.45571C152.703 3.42302 152.684 3.39332 152.66 3.36829C152.635 3.34327 152.606 3.32341 152.574 3.30987C152.543 3.29632 152.508 3.28935 152.474 3.28935H150.919C150.849 3.28935 150.783 3.26107 150.733 3.21071C150.684 3.16035 150.656 3.09202 150.656 3.0207V2.13077C150.656 1.98192 150.774 1.86133 150.919 1.86133H156.109C156.254 1.86133 156.372 1.98192 156.372 2.13077V3.0203C156.372 3.09169 156.344 3.16013 156.295 3.21057C156.245 3.26101 156.179 3.28935 156.109 3.28935Z" fill="black"/>
<path fill-rule="evenodd" clip-rule="evenodd" d="M168.464 4.50209C168.464 3.74271 167.992 3.21416 167.088 3.21416H165.701C165.632 3.21416 165.565 3.24255 165.516 3.29308C165.466 3.34361 165.439 3.41215 165.439 3.48361V5.50504C165.439 5.6535 165.556 5.77369 165.701 5.77369H167.088C167.992 5.77369 168.465 5.2945 168.465 4.50209H168.464ZM169.983 4.5188C169.983 6.00573 168.943 7.13167 167.324 7.13167H165.701C165.632 7.13167 165.565 7.16005 165.516 7.21058C165.466 7.26111 165.439 7.32965 165.439 7.40111V9.8695C165.439 9.90485 165.432 9.93986 165.419 9.97252C165.406 10.0052 165.386 10.0349 165.362 10.0599C165.338 10.0849 165.309 10.1047 165.277 10.1182C165.245 10.1317 165.211 10.1386 165.176 10.1385H164.136C164.101 10.1386 164.067 10.1317 164.035 10.1182C164.003 10.1047 163.974 10.0849 163.95 10.0599C163.926 10.0349 163.906 10.0052 163.893 9.97255C163.88 9.93989 163.873 9.90487 163.873 9.8695V2.13081C163.873 1.98236 163.99 1.86176 164.136 1.86176H167.324C168.943 1.86176 169.983 3.05297 169.983 4.5188ZM174.084 5.08436C174.084 5.23281 174.201 5.35381 174.347 5.35381H175.565C176.316 5.35381 176.721 4.95979 176.721 4.29712C176.721 3.6452 176.316 3.21974 175.565 3.21974H174.347C174.312 3.21968 174.278 3.2266 174.246 3.2401C174.214 3.2536 174.185 3.27341 174.161 3.2984C174.136 3.32338 174.117 3.35306 174.104 3.38573C174.091 3.4184 174.084 3.45342 174.084 3.48878V5.08476V5.08436ZM175.242 6.64133H174.347C174.277 6.64133 174.21 6.66966 174.161 6.72011C174.112 6.77055 174.084 6.83899 174.084 6.91038V9.8691C174.084 9.9045 174.077 9.93956 174.064 9.97228C174.051 10.005 174.031 10.0347 174.007 10.0597C173.983 10.0848 173.954 10.1046 173.922 10.1181C173.89 10.1317 173.856 10.1386 173.821 10.1385H172.781C172.746 10.1385 172.712 10.1316 172.68 10.118C172.648 10.1045 172.619 10.0846 172.595 10.0596C172.571 10.0346 172.551 10.0049 172.538 9.97218C172.525 9.9395 172.518 9.90447 172.518 9.8691V2.13081C172.518 1.98236 172.635 1.86216 172.781 1.86216H175.67C177.33 1.86216 178.239 2.96104 178.239 4.31344C178.239 5.21849 177.786 5.94563 177.088 6.33408C177.057 6.35122 177.03 6.37455 177.008 6.40267C176.986 6.43079 176.97 6.46312 176.961 6.49774C176.952 6.53236 176.949 6.56856 176.954 6.60417C176.958 6.63978 176.97 6.67407 176.988 6.70501L178.734 9.73219C178.758 9.77302 178.77 9.81951 178.771 9.86694C178.771 9.91437 178.759 9.96105 178.737 10.0023C178.714 10.0435 178.681 10.0778 178.641 10.1016C178.601 10.1255 178.555 10.1381 178.509 10.1381H177.423C177.376 10.1382 177.329 10.1253 177.289 10.1008C177.248 10.0763 177.215 10.0411 177.192 9.99885L175.472 6.78103C175.449 6.73875 175.416 6.70348 175.375 6.67891C175.335 6.65433 175.289 6.64136 175.242 6.64133ZM187.505 6.00016C187.505 4.44279 186.333 3.24163 184.815 3.24163C183.302 3.24163 182.125 4.44279 182.125 6.00016C182.125 7.55753 183.302 8.75908 184.815 8.75908C186.333 8.75908 187.505 7.55753 187.505 6.00016ZM180.555 6.00016C180.555 3.58032 182.393 1.7543 184.815 1.7543C187.236 1.7543 189.075 3.58032 189.075 6.00016C189.075 8.41999 187.236 10.2464 184.815 10.2464C182.393 10.2464 180.555 8.41959 180.555 6.00016ZM194.401 8.71053C196.113 8.71053 196.943 7.75135 196.943 6.00016C196.943 4.24896 196.113 3.29018 194.401 3.29018H193.528C193.458 3.29018 193.392 3.31853 193.342 3.36898C193.293 3.41944 193.266 3.48787 193.266 3.55923V8.44108C193.266 8.58993 193.383 8.71053 193.528 8.71053H194.401ZM191.706 2.13081C191.706 1.98236 191.823 1.86216 191.968 1.86216H194.468C197.148 1.86216 198.566 3.49396 198.566 6.00016C198.566 8.50596 197.148 10.1385 194.468 10.1385H191.968C191.934 10.1385 191.899 10.1316 191.868 10.118C191.836 10.1045 191.807 10.0846 191.782 10.0596C191.758 10.0346 191.739 10.0049 191.726 9.97218C191.712 9.9395 191.706 9.90447 191.706 9.8691V2.13081ZM201.082 7.27176V2.13121C201.082 1.98196 201.199 1.86176 201.344 1.86176H202.385C202.529 1.86176 202.647 1.98196 202.647 2.13121V7.02381C202.647 8.34397 203.388 8.82396 204.36 8.82396C205.336 8.82396 206.077 8.34397 206.077 7.02381V2.13121C206.077 1.98196 206.195 1.86176 206.339 1.86176H207.386C207.531 1.86176 207.648 1.98196 207.648 2.13121V7.27176C207.648 9.24942 206.229 10.246 204.36 10.246C202.5 10.246 201.081 9.24942 201.081 7.27176H201.082ZM210.115 6.00016C210.115 3.58032 211.948 1.7543 214.376 1.7543C215.466 1.7543 216.505 2.16981 217.253 2.84681C217.281 2.87166 217.304 2.90223 217.319 2.93654C217.335 2.97086 217.343 3.00816 217.344 3.04603C217.345 3.08391 217.338 3.12152 217.324 3.15645C217.309 3.19137 217.288 3.22283 217.261 3.24879L216.54 3.9421C216.493 3.98813 216.43 4.0141 216.365 4.01483C216.299 4.01557 216.236 3.99102 216.187 3.94608C215.712 3.50152 215.063 3.24163 214.376 3.24163C212.857 3.24163 211.686 4.43761 211.686 6.00016C211.686 7.5627 212.857 8.75908 214.375 8.75908C215.063 8.75908 215.712 8.49879 216.187 8.05423C216.236 8.00917 216.299 7.98455 216.365 7.98529C216.43 7.98603 216.493 8.01207 216.541 8.05821L217.261 8.75192C217.288 8.77788 217.309 8.80934 217.324 8.84426C217.338 8.87918 217.345 8.9168 217.344 8.95468C217.343 8.99255 217.335 9.02985 217.319 9.06417C217.304 9.09848 217.281 9.12905 217.253 9.1539C216.505 9.8305 215.466 10.2464 214.375 10.2464C211.948 10.2464 210.115 8.41959 210.115 6.00016ZM224.591 3.28978H223.041C223.007 3.28978 222.973 3.29676 222.941 3.3103C222.909 3.32385 222.88 3.3437 222.856 3.36872C222.831 3.39375 222.812 3.42346 222.799 3.45614C222.786 3.48883 222.779 3.52386 222.779 3.55923V9.8695C222.779 9.94079 222.751 10.0091 222.702 10.0595C222.653 10.1099 222.586 10.1381 222.517 10.1381H221.481C221.447 10.1382 221.413 10.1313 221.381 10.1178C221.349 10.1044 221.32 10.0846 221.296 10.0596C221.271 10.0347 221.252 10.0051 221.239 9.97243C221.225 9.93981 221.219 9.90483 221.219 9.8695V3.55923C221.219 3.52388 221.212 3.48886 221.199 3.45618C221.186 3.42349 221.166 3.39378 221.142 3.36875C221.118 3.34372 221.089 3.32386 221.057 3.31031C221.025 3.29676 220.991 3.28978 220.957 3.28978H219.401C219.331 3.28968 219.265 3.26128 219.216 3.21084C219.166 3.16039 219.139 3.09202 219.139 3.02074V2.13121C219.139 1.98196 219.256 1.86176 219.401 1.86176H224.591C224.736 1.86176 224.854 1.98196 224.854 2.13121V3.02074C224.854 3.09213 224.826 3.16056 224.777 3.21101C224.728 3.26145 224.661 3.28978 224.591 3.28978ZM226.751 8.7352L227.319 8.00766C227.342 7.97855 227.37 7.9546 227.402 7.93735C227.434 7.9201 227.47 7.90993 227.506 7.90749C227.542 7.90506 227.578 7.91041 227.612 7.92321C227.646 7.936 227.677 7.95596 227.703 7.98179C228.246 8.51869 228.993 8.88286 229.65 8.88286C230.28 8.88286 230.737 8.54934 230.737 7.9615C230.737 7.22321 230.017 6.94819 229.098 6.53387C228.042 6.05946 226.929 5.52057 226.929 4.05991C226.929 2.59448 228.042 1.75391 229.418 1.75391C230.329 1.75391 231.186 2.10295 231.889 2.68005C231.997 2.7684 232.013 2.93079 231.931 3.04501L231.422 3.75266C231.402 3.78184 231.375 3.8064 231.345 3.82485C231.315 3.84331 231.281 3.85528 231.246 3.86004C231.211 3.8648 231.176 3.86226 231.142 3.85256C231.108 3.84285 231.076 3.8262 231.049 3.8036C230.507 3.34232 229.894 3.11745 229.382 3.11745C228.872 3.11745 228.468 3.38172 228.468 3.89872C228.468 4.57214 229.161 4.83601 230.091 5.24595C231.152 5.72554 232.302 6.31816 232.302 7.85921C232.302 9.44324 231.084 10.2408 229.644 10.2408C228.606 10.2408 227.541 9.81338 226.785 9.10733C226.734 9.06139 226.702 8.99725 226.696 8.92807C226.69 8.85888 226.71 8.78988 226.751 8.7352Z" fill="black"/>
</svg>
