<svg width="24" height="24" viewBox="0 0 24 24" fill="none" xmlns="http://www.w3.org/2000/svg">
<path d="M4.00062 21.0006C4.08033 21.0103 4.16091 21.0103 4.24062 21.0006L8.24062 20.0006C8.41807 19.9585 8.5806 19.8685 8.71062 19.7406L21.0006 7.41064C21.3731 7.03591 21.5822 6.52901 21.5822 6.00064C21.5822 5.47226 21.3731 4.96536 21.0006 4.59064L19.4206 3.00064C19.2349 2.81468 19.0143 2.66716 18.7715 2.56652C18.5287 2.46587 18.2685 2.41406 18.0056 2.41406C17.7428 2.41406 17.4825 2.46587 17.2397 2.56652C16.9969 2.66716 16.7764 2.81468 16.5906 3.00064L4.30062 15.2906C4.17141 15.4213 4.07837 15.5832 4.03062 15.7606L3.03062 19.7606C2.99468 19.89 2.98517 20.0253 3.00265 20.1585C3.02014 20.2916 3.06426 20.4199 3.13239 20.5356C3.20051 20.6513 3.29125 20.7521 3.39919 20.832C3.50712 20.9119 3.63005 20.9693 3.76062 21.0006C3.84033 21.0103 3.92091 21.0103 4.00062 21.0006ZM18.0006 4.41064L19.5906 6.00064L18.0006 7.59064L16.4206 6.00064L18.0006 4.41064ZM5.91062 16.5106L15.0006 7.41064L16.5906 9.00064L7.49062 18.1006L5.38062 18.6206L5.91062 16.5106Z" fill="#007AFF"/>
</svg>
