<svg width="24" height="24" viewBox="0 0 24 24" fill="none" xmlns="http://www.w3.org/2000/svg">
<path fill-rule="evenodd" clip-rule="evenodd" d="M17.0943 12C17.0943 14.6472 14.8097 16.8 12.0004 16.8C9.19114 16.8 6.90653 14.6472 6.90653 12C6.90653 9.3528 9.19114 7.2 12.0004 7.2C14.8097 7.2 17.0943 9.3528 17.0943 12ZM14.5474 12C14.5474 10.6992 13.3809 9.6 12.0004 9.6C10.62 9.6 9.45347 10.6992 9.45347 12C9.45347 13.3008 10.62 14.4 12.0004 14.4C13.3809 14.4 14.5474 13.3008 14.5474 12Z" fill="#2C2E34"/>
<path fill-rule="evenodd" clip-rule="evenodd" d="M1.61486 19.0392L0.341389 16.9632C-0.361567 15.8172 0.0561314 14.346 1.27229 13.6836L1.9154 13.3332C1.84663 12.8904 1.81225 12.4452 1.81225 12C1.81225 11.5548 1.84663 11.1084 1.9154 10.6656L1.27229 10.3152C0.0561314 9.654 -0.361567 8.1828 0.341389 7.0368L1.61358 4.962C2.2898 3.8592 3.91474 3.4464 5.09143 4.0836L5.76509 4.4508C6.50625 3.9036 7.32 3.4536 8.17959 3.1176V2.4C8.17959 1.0764 9.32189 0 10.7265 0H13.2735C14.6781 0 15.8204 1.0764 15.8204 2.4V3.1176C16.68 3.4536 17.4937 3.9036 18.2349 4.452L18.9086 4.0848C20.084 3.4452 21.7102 3.8592 22.3864 4.9632L23.6586 7.038C24.3616 8.184 23.9439 9.654 22.7277 10.3164L22.0846 10.6668C22.1534 11.1084 22.1878 11.5548 22.1878 12C22.1878 12.4452 22.1534 12.8904 22.0846 13.3356L22.7277 13.686C23.9439 14.3472 24.3616 15.8184 23.6586 16.9644L22.3864 19.0392C21.7077 20.142 20.084 20.5524 18.9086 19.9164L18.2349 19.5492C17.4937 20.0964 16.68 20.5464 15.8204 20.8824V21.6C15.8204 22.9236 14.6781 24 13.2735 24H10.7265C9.32189 24 8.17959 22.9236 8.17959 21.6V20.8824C7.32 20.5464 6.50625 20.0964 5.76509 19.548L5.09143 19.9152C3.91856 20.5524 2.29107 20.1396 1.61486 19.0392ZM4.35918 12C4.35918 12.5532 4.43305 13.11 4.57695 13.6536C4.71321 14.1732 4.46998 14.7156 3.97714 14.9832L2.54576 15.7644L3.81923 17.8392L5.27608 17.0448C5.47474 16.9368 5.69378 16.884 5.91282 16.884C6.23118 16.884 6.547 16.9956 6.78896 17.214C7.65874 17.9904 8.70808 18.57 9.82491 18.8928C10.361 19.0464 10.7265 19.5132 10.7265 20.04V21.6H13.276L13.2735 20.04C13.2735 19.5132 13.639 19.0464 14.1751 18.8928C15.2919 18.5712 16.3413 17.9904 17.211 17.214C17.6198 16.8444 18.2362 16.7784 18.7239 17.0436L20.182 17.8368L21.453 15.762L20.0229 14.9832C19.53 14.7156 19.2868 14.1732 19.4231 13.6536C19.567 13.11 19.6408 12.5532 19.6408 12C19.6408 11.4456 19.567 10.8888 19.4243 10.3464C19.2868 9.828 19.53 9.2856 20.0229 9.0168L21.4542 8.238L20.1808 6.1632L18.7239 6.9564C18.2375 7.2204 17.6198 7.1544 17.211 6.786C16.3413 6.0096 15.2919 5.43 14.1751 5.1072C13.639 4.9536 13.2735 4.4868 13.2735 3.96V2.4H10.7265V3.96C10.7265 4.4868 10.361 4.9536 9.82491 5.1072C8.70808 5.4288 7.65874 6.0096 6.78896 6.786C6.38018 7.1544 5.76509 7.2216 5.27608 6.9564L3.81796 6.162L2.54704 8.2368L3.97714 9.0168C4.46998 9.2844 4.71321 9.8268 4.57567 10.3464C4.43305 10.8888 4.35918 11.4456 4.35918 12Z" fill="#2C2E34"/>
</svg>
