<svg width="20" height="20" viewBox="0 0 20 20" fill="none" xmlns="http://www.w3.org/2000/svg">
<path d="M10 0C4.486 0 0 4.486 0 10C0 15.514 4.486 20 10 20C15.514 20 20 15.514 20 10C20 4.486 15.514 0 10 0ZM10 18C5.589 18 2 14.411 2 10C2 5.589 5.589 2 10 2C14.411 2 18 5.589 18 10C18 14.411 14.411 18 10 18Z" fill="#34C759"/>
<path d="M12.829 12.828C12.4635 13.1923 12.0317 13.4836 11.557 13.686C10.7023 14.0468 9.74878 14.0995 8.85954 13.835C7.97029 13.5705 7.20056 13.0053 6.682 12.236L5.024 13.355C5.45644 13.9931 6.0066 14.543 6.645 14.975C7.29465 15.4143 8.02459 15.7212 8.793 15.878C9.5898 16.0405 10.4112 16.0405 11.208 15.878C11.9763 15.721 12.7062 15.4141 13.356 14.975C13.669 14.763 13.968 14.517 14.242 14.244C14.514 13.973 14.762 13.673 14.976 13.355L13.318 12.236C13.1743 12.4485 13.0105 12.6467 12.829 12.828Z" fill="#34C759"/>
<path d="M13.493 9.986C14.3176 9.986 14.986 9.31756 14.986 8.493C14.986 7.66844 14.3176 7 13.493 7C12.6684 7 12 7.66844 12 8.493C12 9.31756 12.6684 9.986 13.493 9.986Z" fill="#34C759"/>
<path d="M6.5 10C7.32843 10 8 9.32843 8 8.5C8 7.67157 7.32843 7 6.5 7C5.67157 7 5 7.67157 5 8.5C5 9.32843 5.67157 10 6.5 10Z" fill="#34C759"/>
</svg>
