<svg width="20" height="20" viewBox="0 0 20 20" fill="none" xmlns="http://www.w3.org/2000/svg">
<path d="M10.279 6.833L10 7.112L9.721 6.833C8.633 5.745 6.908 5.745 5.815 6.833C4.726 7.927 4.726 9.651 5.815 10.74L10 14.926L14.186 10.74C15.275 9.652 15.275 7.927 14.186 6.833C13.092 5.745 11.367 5.745 10.279 6.833Z" fill="#2C2E34"/>
<path d="M10 0C4.486 0 0 4.486 0 10C0 15.514 4.486 20 10 20C15.514 20 20 15.514 20 10C20 4.486 15.514 0 10 0ZM10 18C5.589 18 2 14.411 2 10C2 5.589 5.589 2 10 2C14.411 2 18 5.589 18 10C18 14.411 14.411 18 10 18Z" fill="#2C2E34"/>
</svg>
