<svg width="153" height="154" viewBox="0 0 153 154" fill="none" xmlns="http://www.w3.org/2000/svg">
<g clip-path="url(#clip0_206_11060)">
<path d="M0 69.931C1.071 65.143 1.872 60.274 3.267 55.576C13.419 21.205 45.747 -1.07004 82.017 1.15296C116.361 3.25896 145.881 30.061 151.749 64.477C159.039 107.2 129.339 147.412 86.319 153.082C44.262 158.626 5.922 128.908 0.594 86.644C0.513 86.005 0.198 85.393 0 84.772C0 79.822 0 74.872 0 69.922V69.931ZM142.173 77.554C142.389 42.067 114.075 11.665 76.68 11.458C40.23 11.26 10.395 40.996 10.359 77.284C10.323 113.302 40.014 143.191 75.87 143.236C112.572 143.281 142.146 113.977 142.173 77.554Z" fill="#5E3A0E"/>
<circle cx="100.45" cy="55.1513" r="9.2" fill="#5E3A0E" stroke="#5E3A0E" stroke-width="0.8"/>
<circle cx="52.4496" cy="55.1513" r="9.2" fill="#5E3A0E" stroke="#5E3A0E" stroke-width="0.8"/>
<path d="M39.9199 101.5H114.08" stroke="#5E3A0E" stroke-width="10" stroke-linecap="round"/>
</g>
<defs>
<clipPath id="clip0_206_11060">
<rect width="152.856" height="152.748" fill="white" transform="translate(0 0.876465)"/>
</clipPath>
</defs>
</svg>
