<svg width="153" height="153" viewBox="0 0 153 153" fill="none" xmlns="http://www.w3.org/2000/svg">
<g clip-path="url(#clip0_206_11085)">
<path d="M0 69.0545C1.071 64.2665 1.872 59.3975 3.267 54.6995C13.419 20.3285 45.747 -1.94651 82.017 0.276492C116.361 2.38249 145.881 29.1845 151.749 63.6005C159.039 106.324 129.339 146.535 86.319 152.205C44.262 157.749 5.922 128.032 0.594 85.7675C0.513 85.1285 0.198 84.5165 0 83.8955C0 78.9455 0 73.9955 0 69.0455V69.0545ZM142.173 76.6775C142.389 41.1905 114.075 10.7885 76.68 10.5815C40.23 10.3835 10.395 40.1195 10.359 76.4075C10.323 112.425 40.014 142.314 75.87 142.359C112.572 142.404 142.146 113.1 142.173 76.6775Z" fill="#5F182C"/>
<circle cx="100.45" cy="50.2748" r="9.6" fill="#5F182C"/>
<circle cx="52.4496" cy="50.2748" r="9.6" fill="#5F182C"/>
<path d="M35.3996 106.649C45.9099 83.9972 66.8948 80.0033 75.3996 79.8489C96.4194 79.4674 111 93.0489 118.6 106.649" stroke="#5F182C" stroke-width="10" stroke-linecap="round"/>
</g>
<defs>
<clipPath id="clip0_206_11085">
<rect width="152.856" height="152.748" fill="white"/>
</clipPath>
</defs>
</svg>
